<?xml version="1.0" encoding="utf-8"?>
<!-- Generator: Adobe Illustrator 22.1.0, SVG Export Plug-In . SVG Version: 6.00 Build 0)  -->
<svg version="1.1" id="payroll" xmlns="http://www.w3.org/2000/svg" xmlns:xlink="http://www.w3.org/1999/xlink" x="0px" y="0px"
	 viewBox="0 0 294 250" style="enable-background:new 0 0 294 250;" xml:space="preserve">
<style type="text/css">
	.st0{fill:#A8A7A7;}
	.st1{fill:#FB3117;}
	.st2{fill:#FFFFFF;}
	.st3{fill:none;stroke:#FFFFFF;stroke-width:10;stroke-linecap:round;stroke-miterlimit:5;}
	.st4{fill:#7C7C7C;}
	.st5{fill:none;stroke:#FFFFFF;stroke-width:3;stroke-linecap:round;stroke-miterlimit:10;}
	.st6{opacity:0.5;}
	.st7{fill:#F1AD13;}
	.st8{fill:#E4C076;}
	.st9{fill:#F5DA95;}
	.st10{fill:#191918;}
	.st11{fill:#DB1408;}
	.st12{fill:#FA0F0C;}
	.st13{fill:#121211;}
	.st14{fill:#FDFEFA;}
	.st15{fill:none;stroke:#C60E0A;stroke-width:2;stroke-miterlimit:10;}
	.st16{fill:none;stroke:#FFFFFF;stroke-linecap:round;stroke-miterlimit:10;}
	.st17{fill:#DFDFDF;}
	.st18{fill:#C1C1C1;}
	.st19{fill:#FEFDFD;}
	.st20{fill:none;stroke:#FA100C;stroke-miterlimit:10;}
	.st21{opacity:0.3;}
	.st22{fill:none;stroke:#000000;stroke-width:2;stroke-linecap:round;stroke-miterlimit:10;}
	.st23{fill:none;stroke:#FA0F0C;stroke-width:2;stroke-linecap:round;stroke-miterlimit:10;}
	.st24{fill:none;stroke:#FFFFFF;stroke-miterlimit:10;}

	#signature{
	animation: off 3s cubic-bezier(.45,.46,.62,.64) infinite;
	stroke-dasharray: 100;
	stroke-dashoffset: 0;
}

		@keyframes off{
		0%{
			stroke-dashoffset: 120;
		}
		100%{
			stroke-dashoffset: 0;
		}
		}

	#dollar{
	animation: rot 2s ease infinite;
	transform-origin: 223.155px 167.031px;
}

		@keyframes rot{
		0%{
			transform: rotate(.5deg);
		}
		25%{
			transform: rotate(-2.5deg);
		}
		50%{
			transform: rotate(.5deg);
		}
		75%{
			transform: rotate(-2.5deg);
		}
		100%{
			transform: rotate(.5deg);
		}
		}
</style>
<g>
	<path class="st0" d="M167.1,180.5C167.1,180.5,167.1,180.5,167.1,180.5c-0.3,0.1-0.5,0.1-0.7,0.2c-1.1,0.2-2.1,0.7-3,1.3
		c0,0,0,0,0,0c-0.6,0.5-1.1,1-1.6,1.7c-4.7,6.3-3.7,19.6-3.7,19.6h-15.3c0,0,1-13.3-3.6-19.6c-0.5-0.6-1-1.2-1.6-1.7c0,0,0,0,0,0
		c-0.8-0.6-1.7-1.1-2.7-1.3c-0.2,0-0.3-0.1-0.5-0.1c0,0-0.1,0-0.1,0C128,178.5,172.1,179,167.1,180.5z"/>
	<g>
		<path class="st1" d="M49.3,167.3V65.1c0-1.4,1.4-2.6,3-2.6h197.9c1.7,0,3,1.2,3,2.6v102.2H49.3z"/>
		<path class="st2" d="M250.2,64c0.9,0,1.5,0.6,1.5,1.1v100.7h-201V65.1c0-0.5,0.6-1.1,1.5-1.1H250.2 M250.2,61H52.3
			c-2.5,0-4.5,1.8-4.5,4.1v103.7h207V65.1C254.7,62.8,252.7,61,250.2,61L250.2,61z"/>
	</g>
	<line class="st3" x1="121.9" y1="203.3" x2="180" y2="203.3"/>
	<path class="st2" d="M254.7,168.8v7.1c0,2.5-2,4.5-4.5,4.5H52.3c-2.5,0-4.5-2-4.5-4.5v-7.1H254.7z"/>
	<path class="st4" d="M167.1,180.5C167.1,180.5,167.1,180.5,167.1,180.5c-0.3,0.1-0.5,0.1-0.7,0.2c-1.1,0.2-2.1,0.7-3,1.3
		c0,0,0,0,0,0c-0.6,0.5-1.1,1-1.6,1.7h-22.6c-0.5-0.6-1-1.2-1.6-1.7c0,0,0,0,0,0c-0.8-0.6-1.7-1.1-2.7-1.3c-0.2,0-0.3-0.1-0.5-0.1
		c0,0-0.1,0-0.1,0H167.1z"/>
</g>
<line id="firstline" class="st5" x1="149.1" y1="81.8" x2="199.8" y2="81.4"/>
<line id="secondline" class="st5" x1="148.9" y1="91.6" x2="226.3" y2="91"/>
<line id="thirdline" class="st5" x1="149.1" y1="101.4" x2="247" y2="100.5"/>
<g>
	<g class="st6">
		<path d="M58.5,162.8h77c1.4,0,2.5-1.1,2.5-2.5V69.5c0-1.4-1.1-2.5-2.5-2.5h-77c-1.4,0-2.5,1.1-2.5,2.5v90.7
			C56,161.7,57.1,162.8,58.5,162.8z"/>
	</g>
	<g>
		<path class="st7" d="M56.5,162.8h77c1.4,0,2.5-1.1,2.5-2.5V69.5c0-1.4-1.1-2.5-2.5-2.5h-77c-1.4,0-2.5,1.1-2.5,2.5v90.7
			C54,161.7,55.1,162.8,56.5,162.8z"/>
	</g>
</g>
<g>
	<path class="st8" d="M85.8,109.3c0,0,0.6,2.8,0.5,3.6c-0.2,0.8,7.1,0.2,7.1,0.2s0.2-4,0.8-4.3C94.7,108.4,85.8,109.3,85.8,109.3z"
		/>
	<path class="st9" d="M102.1,90.1L98.5,88l-17-0.2L78,89.9c0,0-1.3,12.1,2.7,16c3.7,3.6,6.9,5.1,8.9,5.2h-0.1c0,0,0.1,0,0.1,0
		c0.1,0,0.1,0,0.2,0c0.1,0,0.1,0,0.2,0c0,0,0.1,0,0.1,0H90c2-0.1,5.1-2,8.8-5.6C102.7,101.5,102.1,90.1,102.1,90.1z"/>
	<path class="st10" d="M76.1,89.7c0,0,2,11.4,2.4,12.5s0.4-0.6,0.4-0.6s0.2-8.2,0.3-9.7c0.1-1.4,2.5-2.8,3.7-3.2
		c0.2-0.1,0.9-0.1,2-0.1c4.1,0,12.9,0.4,13.7,0.9c1.1,0.6,1.8,2.6,1.8,3.6c0,1,0.2,7.7,0.2,7.7l0.2,0.7c1.4-4.8,2.3-9.8,3-14.9
		c0,0-4.4-6.4-7.9-5.7C92.3,81.8,77.2,73.1,76.1,89.7z"/>
	<path class="st2" d="M86.3,112.9l3.6,26.5l3.5-26.4C90.9,113.4,88.5,113.4,86.3,112.9z"/>
	<path class="st11" d="M88.4,114.9c0,0-0.9,17.4-0.9,17.5l2.5,3.8c0,0,0.1,0,0.1,0l2.1-3.5c0,0-0.8-17.7-0.8-17.7c0,0,0,0,0,0
		L88.4,114.9C88.4,114.9,88.4,114.9,88.4,114.9z"/>
	<path class="st12" d="M87.3,113.8l2.3,2.2c0.2,0.2,0.5,0.2,0.7,0l2.3-2.1c0.3-0.3,0.1-0.9-0.3-0.9l-4.5-0.1
		C87.2,112.9,86.9,113.5,87.3,113.8z"/>
	<path class="st10" d="M86.3,112.9l-11.2,0.1c-1.2,0-2.4,1.4-2.7,2.6l-6.2,27.4l7.9,0.8l3.1-11.9l0.3,18.4h13.8L86.3,112.9z"/>
	<polygon class="st13" points="86.3,112.9 83.1,119.5 85.7,123.8 85.1,125.8 88.8,131.4 	"/>
	<path class="st14" d="M66.6,143.1l-0.1,0.5c0,0,7.4,0.8,7.4,0.8c0-0.1,0.2-0.5,0.2-0.5L66.6,143.1z"/>
	<path class="st10" d="M93.4,112.9l11.2,0.1c1.2,0,2.4,1.4,2.7,2.6l6.2,27.4l-7.9,0.8l-3.1-11.9l-0.3,18.4H88.4L93.4,112.9z"/>
	<polygon class="st13" points="93.4,112.9 96.7,119.5 94,123.8 94.7,125.8 90.9,131.4 	"/>
	<path class="st14" d="M113.2,143.1l0.1,0.5c0,0-7.4,0.8-7.4,0.8c0-0.1-0.2-0.5-0.2-0.5L113.2,143.1z"/>
	<circle class="st13" cx="89.7" cy="141.8" r="0.5"/>
	<circle class="st13" cx="89.7" cy="143.7" r="0.5"/>
	<polygon class="st13" points="78.2,150.4 78.2,151.2 101.7,151.2 101.8,150.4 	"/>
</g>
<g>
	<g id="dollar">
		<path class="st2" d="M233.1,158.1c0,0-0.6-0.2-1.9-0.5c-1.3-0.3-2.4-0.7-3.4-1.2c-1-0.5-1.7-1-2.1-1.6l2.3-4.1
			c0.9,0.8,2,1.5,3.2,1.9c1.2,0.5,2.4,0.7,3.7,0.7c1.4,0,2.5-0.3,3.3-0.8c0.8-0.6,1.2-1.3,1.2-2.4v0c0-0.7-0.2-1.3-0.5-1.7
			c-0.3-0.4-0.8-0.7-1.3-0.9c-0.5-0.2-1.3-0.4-2.1-0.5c0,0-0.1,0-0.1,0s-0.1,0-0.1,0c0,0-0.1,0-0.1,0c0,0-0.1,0-0.1,0
			c-1.7-0.3-3.1-0.7-4.2-1.1c-1.1-0.4-2-1.1-2.7-2.2c-0.8-1.1-1.1-2.6-1.1-4.5v0c0-1.7,0.4-3.2,1.1-4.4c0.7-1.2,1.7-2.1,3.1-2.8
			c1.4-0.6,3-1,4.9-1c0.9,0,1.8,0.1,2.7,0.3c0.9,0.2,1.8,0.5,2.7,1c0.9,0.4,1.7,0.9,2.5,1.5l-2.1,4.2c-0.9-0.7-1.9-1.3-2.8-1.7
			c-1-0.4-1.9-0.6-2.8-0.6c-1.3,0-2.3,0.3-3,0.8s-1.1,1.2-1.1,2.1v0c0,0.8,0.2,1.4,0.6,1.9s0.9,0.8,1.5,1c0.6,0.2,1.4,0.4,2.4,0.6
			c0,0,0,0,0,0c0,0,0,0,0,0c0.1,0,0.1,0,0.2,0c0.1,0,0.1,0,0.2,0c1.5,0.3,2.8,0.7,3.9,1.2c1,0.5,1.9,1.2,2.6,2.3s1,2.5,1,4.3v0
			c0,1.7-0.4,3.1-1.1,4.4c-0.7,1.2-1.8,2.1-3.2,2.8c-1.4,0.6-3.1,1-5.1,1C233.7,158.1,233.1,158.1,233.1,158.1z M232.9,128h5v4.2h-5
			V128z M232.9,156.6h5v4.4h-5V156.6z"/>
	</g>
</g>
<line class="st15" x1="140.5" y1="113.3" x2="251.1" y2="112.9"/>
<line class="st15" x1="212.4" y1="112.9" x2="212.4" y2="164.1"/>
<line class="st16" x1="178.9" y1="144.2" x2="204.4" y2="143.9"/>
<line class="st16" x1="178.9" y1="149.7" x2="204.4" y2="149.4"/>
<line class="st16" x1="179.1" y1="155.3" x2="204.6" y2="155"/>
<g id="receipt">
	<path class="st17" d="M39,160.5c0,0-5.7-41.1-10.1-47.5c0-1.2,32.9-13,33.5-12.8c9.6,9.3,12.2,40.9,12.2,40.9L39,160.5z"/>
	<path class="st18" d="M52,143.5c0,0-7.9,3.6-13.1,16.9c17,0.9,17,0.9,17,0.9S54.1,144.1,52,143.5z"/>
	<path class="st19" d="M58.9,190.9l1.2,3.4l3.8-3.3l2.8,4.4l3-3.3l2.4,5.3l2.4-4.9l2.3,3.7l2.7-3.4l1.8,4.6l2.2-5.8l3.2,6.1l3.8-4.1
		l3.8,7.1c0,0,1.9-48-5.8-57.1c-7.8-9.1-38.2-0.2-37.1,0.4C54.6,145.9,58.9,190.9,58.9,190.9z"/>
	<line class="st20" x1="42.9" y1="111.9" x2="50.2" y2="109.2"/>
	<line class="st20" x1="39" y1="116.3" x2="58.4" y2="109.2"/>
	<line class="st20" x1="36.9" y1="124.9" x2="55.9" y2="118.3"/>
	<line class="st20" x1="59.3" y1="117.1" x2="64.1" y2="115.1"/>
	<line class="st20" x1="38.1" y1="128.6" x2="50.2" y2="124.2"/>
	<line class="st20" x1="51.7" y1="123.4" x2="65.1" y2="118.3"/>
	<path class="st20" d="M58.4,134.6c0,0,9.2-3.7,10.1-3.2"/>
	<path class="st20" d="M62.9,135.3c0,0,3.7-1.2,5.7-1.3"/>
</g>
<g id="arrowgraph">
	<g class="st21">
		<polyline class="st22" points="69.2,165.1 80.6,152.5 88.9,157.1 99.9,132.6 112,141.5 134.6,126.8 		"/>
		<path d="M128.4,142.3c-0.5-0.2-0.7-0.8-0.5-1.3l6.3-13.9l-15.3,0.1c-0.6,0-1-0.4-1-1c0-0.6,0.4-1,1-1l16.9-0.2
			c0.3,0,0.7,0.2,0.8,0.5c0.2,0.3,0.2,0.6,0.1,1l-7,15.4c-0.1,0.2-0.2,0.3-0.4,0.4C129,142.4,128.7,142.5,128.4,142.3z"/>
	</g>
	<g>
		<g>
			<polyline class="st23" points="67.2,164.1 78.6,151.5 86.9,156.1 97.9,131.6 110,140.5 132.6,125.8 			"/>
			<g>
				<path class="st12" d="M126.4,141.3c-0.5-0.2-0.7-0.8-0.5-1.3l6.3-13.9l-15.3,0.1c-0.6,0-1-0.4-1-1c0-0.6,0.4-1,1-1l16.9-0.2
					c0.3,0,0.7,0.2,0.8,0.5c0.2,0.3,0.2,0.6,0.1,1l-7,15.4c-0.1,0.2-0.2,0.3-0.4,0.4C127,141.4,126.7,141.5,126.4,141.3z"/>
			</g>
		</g>
	</g>
</g>
<path id="signature" class="st24" d="M174.7,139.7c4.2-0.4,8.2-2.9,10.4-6.5c0.3-0.5,0.5-1.1,0.2-1.6c-0.3-0.4-0.8-0.4-1.3-0.4
	c-1.1,0-2.4,0.1-3.2,0.9c-0.8,0.8-0.9,2-1,3.1c-0.1,1.2-0.1,2.3,0.3,3.4s1.3,2.1,2.4,2.2c0.9,0.1,1.8-0.3,2.5-0.8
	c1-0.7,1.9-1.5,2.6-2.4c-0.6-0.1-1.3-0.2-1.9-0.1c-0.6,0.2-1.2,0.7-1.2,1.3c0,0.9,1.2,1.4,2.1,1.4c2.3,0,4.4-1.1,6.5-1.9
	c1-0.3,2-0.6,3-0.2c0.9,0.4,1.5,1.7,0.8,2.5c0-1,0.5-1.9,1.2-2.5c0.7-0.7,1.6-1,2.5-1.3c0.8-0.2,1.8-0.3,2.6,0s1.5,1.1,1.5,2
	s-1,1.6-1.8,1.3c-0.6-0.3-0.9-1.1-0.6-1.8s0.9-1.1,1.6-1.2s1.4-0.1,2.1,0c3.6,0.5,7.2,1.7,10.9,1.7"/>
</svg>
